<svg xmlns="http://www.w3.org/2000/svg" viewBox="0 0 1208.4 1816.81">
    <path d="m1118.4,94.77h-556.48L53.86.74C39.25-1.96,24.15,2.8,13.48,13.48,2.8,24.16-1.96,39.26.74,53.86l82.91,448.22v1224.72c0,49.71,40.29,90,90,90h944.74c49.71,0,90-40.29,90-90V184.77c0-49.71-40.29-90-90-90Z"/>
    <path fill="#fff" d="m377.03,1716.34c0,21.35-9.48,29.67-33.8,29.67h-91.91v-38.98h72.44c4.14,0,7.5-3.36,7.5-7.5v-37.76c0-4.14-3.36-7.5-7.5-7.5h-38.94c-20.69,0-33.5-4.91-33.5-29.38v-68.44c0-22.41,9.48-31.15,33.8-31.15h86.01v38.99h-66.54c-4.14,0-7.5,3.36-7.5,7.5v35.99c0,4.14,3.36,7.5,7.5,7.5h38.35c24.85,0,34.09,8.84,34.09,32.62v68.44Zm119,29.67v-174.22c0-4.14,3.36-7.5,7.5-7.5h42.94v-38.99h-146.66v38.99h42.94c4.14,0,7.5,3.36,7.5,7.5v174.22h45.77Zm177.66,0v-55.92c0-4.14-3.36-7.5-7.5-7.5h-38.94c-4.14,0-7.5,3.36-7.5,7.5v55.92h-45.77v-189.56c0-22.41,9.56-31.15,34.09-31.15h111.38v220.7h-45.77Zm0-174.22c0-4.14-3.36-7.5-7.5-7.5h-38.94c-4.14,0-7.5,3.36-7.5,7.5v64.9c0,4.14,3.36,7.5,7.5,7.5h38.94c4.14,0,7.5-3.36,7.5-7.5v-64.9Zm169.49,174.22v-174.22c0-4.14,3.36-7.5,7.5-7.5h42.94v-38.99h-146.66v38.99h42.95c4.14,0,7.5,3.36,7.5,7.5v174.22h45.77Zm77.95,0h121.88v-38.98h-68.61c-4.14,0-7.5-3.36-7.5-7.5v-38.05c0-4.14,3.36-7.5,7.5-7.5h68.61v-38.69h-68.61c-4.14,0-7.5-3.36-7.5-7.5v-35.99c0-4.14,3.36-7.5,7.5-7.5h68.61v-38.99h-121.88v220.7Zm-593.72-320.13c0,20.52-10.24,29.67-33.21,29.67h-112.27v-220.7h112.27c23.28,0,33.21,8.96,33.21,29.96v161.07Zm-45.77-151.75h-53.94v142.44h53.94v-142.44Zm182.16,181.42v-79.35h-49.51v79.35h-45.77v-220.7h106.96c24.54,0,34.09,8.73,34.09,31.14v60.47c0,12.92-4.78,19.64-16.51,23.21l-5.32,1.62v12.71l6.51.87c7.13.95,15.32,4.12,15.32,20.29v70.38h-45.77Zm0-181.72h-49.51v63.67h49.51v-63.67Zm208.66.54v-38.98h-121.88v220.7h121.88v-38.98h-76.11v-53.59l76.11.54v-38.69h-76.11v-50.99h76.11Zm139.25,181.18v-63.42h-53.94v63.42h-45.77v-189.56c0-22.41,9.56-31.14,34.09-31.14h111.38v220.7h-45.77Zm0-174.22c0-4.14-3.36-7.5-7.5-7.5h-38.94c-4.14,0-7.5,3.36-7.5,7.5v64.9c0,4.14,3.36,7.5,7.5,7.5h38.94c4.14,0,7.5-3.36,7.5-7.5v-64.9Zm300.27,174.22v-220.7h-36.43l-70.19,128.42-71.13-128.42h-35.58v220.7h44.88v-125.36l61.65,104.8,61.91-103.91v124.46h44.88Z"/>
    <path fill="#27ffac" d="m651.31,599.68c52.12,55.93,101.75,113.75,153.93,174.54,88.4,102.99,188.37,219.45,330.68,362.53,7.1-10.66,11.05-23.32,11.05-36.39v-456.79c-12.36,12.35-26.49,23.52-42.12,33.19-32.42,20.06-71.44,33.78-112.84,39.7-16.03,2.29-32.4,3.43-48.94,3.43-43.18,0-87.62-7.75-130.79-22.98-57.51-20.29-111.54-52.95-160.99-97.24Z"/>
    <path fill="#8400ff" d="m684.34,562.14c44.65,40.06,93.18,69.49,144.6,87.63,52.14,18.39,106.09,24.34,156.02,17.21,69.07-9.87,126.07-44.53,152.48-92.7,3.75-6.84,6.91-14,9.37-21.28.06-.16.12-.32.18-.48V218.26c0-36.19-29.44-65.63-65.63-65.63h-271.68c-9.07,0-13.84,6.18-15.29,11.96s-.14,13.39,7.8,17.62c71.24,37.98,121.38,82.15,149.02,131.29,25.16,44.71,29.96,91,13.88,133.86-16.71,44.57-54.51,80.79-106.44,101.99-51.6,21.07-111.66,25.43-174.31,12.78Z"/>
    <path fill="#ffc219" d="m1093.4,1164.88c-139.83-141.09-238.59-256.15-326.09-358.09-52.39-61.04-102.2-119.06-154.27-174.83,31.73,53.44,53.79,112.27,64.15,171.42,11.31,64.58,8.78,129.65-7.31,188.18-12.6,45.84-33.03,86.91-60.72,122.08-15.48,19.66-33.01,37.13-52.41,52.35h524.6c4.08,0,8.11-.38,12.05-1.11Z"/>
    <path fill="#f04" d="m161.15,790.18c-5.6,1.53-11.59,6.33-11.59,15.18v295c0,36.19,29.44,65.63,65.63,65.63h242.3c1.28-.82,2.65-1.54,4.1-2.14,5.96-2.43,11.89-5.1,17.63-7.92,35.72-17.55,66.22-42.19,90.66-73.22,23.55-29.9,40.97-65.03,51.79-104.4,14.14-51.45,16.31-108.96,6.27-166.31-8.37-47.82-25.3-95.49-49.43-139.67,3.61,54.91-7.88,106.18-33.6,149.12-26.06,43.51-65.65,76-111.47,91.47-44.25,14.94-90.67,13.35-134.26-4.59-47.24-19.44-88.85-57.83-120.34-111-3.39-5.72-8.52-7.75-13.24-7.75-1.55,0-3.06.22-4.45.6Z"/>
    <path fill="#fff" d="m659.36,503.94l-245.01-245.01,118.69-118.69L51.08,51.08l89.15,481.96,138.29-138.29,245.01,245.01c7.69,7.69,20.16,7.69,27.86,0l107.97-107.97c7.69-7.69,7.69-20.16,0-27.86Z"/>
</svg>