<svg viewBox="0 0 380.06 830.69" xmlns="http://www.w3.org/2000/svg"><path d="m99.82 2.52c3.32 6.02 5.54 12.65 7.39 16.97 0 2.68.12 3.06-.02 3.25-7.78 10.58.94 12.82 7.71 18.04 19.18 14.81 11.92 52.06-11.57 62-3.72 1.58-4.7 2.79-2.28 6.5 5.95 9.15 4.7 18.13-1.61 26.66-8.28 11.19-19.02 18.9-32.42 22.88-.31.09-.62.18-.93.26.02.25.04.49.07.74.07.63.15 1.27.22 1.9 1.35 9.9-.98 19.13-4.47 28.34-6.3 16.62-17.59 30.26-26.45 45.34-8.4 14.3-16.66 28.57-21.92 44.35 12.5 1.68 18.94 12.62 14.84 26.02-1.88 6.16-5.43 11.38-9.01 16.59-.04.25-.08.49-.12.74.15-.13.3-.26.45-.39 4.5-.63 9.04-1.99 13.5-1.75 9.9.53 16.82 4.79 18.15 15.88.8 6.7 4.42 12.46 8.98 17.5 11.68 12.89 8.79 26.11-7.28 33.3-7.74 3.46-8.95 7.8-4.01 14.1 5.48 6.99 7.35 14.05 1.34 21.99-4.65 6.14-6.51 13.38-6.63 21.15-.23 14.74-12.01 22.54-26.59 17.81-6.31-2.05-11.69-5.76-17.03-9.55 0 0-.11.21-.11.21 1.91 5.62 3.12 11.3 2.01 17.31-.44 2.39-1.09 4.55-2.01 6.44 3.51 2.61 6.38 6.75 8.36 12.35 1.33 3.77 1.34 5.74 6.35 2.41 15.9-10.57 32.32-4.04 39.79 7.86 4.24 6.77 2.8 15.67 2.99 23.65.22 8.88 3.18 15.98 10.1 21.73 7.77 6.46 14.83 13.74 20.17 22.4 8.45 13.73 4.31 25.93-10.85 31.33-4.58 1.63-5.98 1.89-2.6 7.08 10.45 16.06 3.12 32.72-8.17 39.33-3 1.76-6.33 2.54-9.8 2.88-1.07 10.26-3.01 20.44-2.81 30.82.31 15.57 6.23 26.99 17.45 33.75.81-.32 1.63-.63 2.48-.81 13.53-2.92 26.58-2.06 39.41.31 1.39-1.05 2.83-2.05 4.22-3.04 1.69-1.19 3.82-1.76 5.75-2.62.02.1.04.21.05.32-.01-.11-.03-.21-.05-.32 7.32-12.59 18.07-21.43 29.97-29.66 14.09-9.76 30.05-8.98 45.62-11.2 8.12-1.16 16.22-2.51 24.23-4.21 2.29-.49 4.18-.29 6.22.35.33.29.65.58.98.88 0-.01 0-.03-.01-.04 10.66 2.54 16.25 12.22 24.85 17.68 13.12 8.31 26.06 16.9 39.17 25.22 5.73 3.64 10.31 8.3 12.81 14.54 3.09 7.74 6.88 14.86 12.21 21.4 4.82 5.92 8.84 12.36 12.61 18.96 12.97 2.83 25.95 5.67 38.93 8.48 1.97.43 3.76 1.7 5.63 2.58 4.07 7.26.54 13.84-2.87 19.66-3.49 5.95-9.42 1.17-13.48.23-3.99-.92-7.98-1.85-11.98-2.77 8.3 12.43 18.34 23.52 27.1 35.5 1.66 2.27 3.41 4.45 5.24 6.56v-830.69h-281.73c.49.82.98 1.65 1.46 2.52z" fill="#eee5e4"/></svg>